<svg width="110" height="120" viewBox="0 0 110 120" fill="none" xmlns="http://www.w3.org/2000/svg">
<path d="M70.1583 7.97536C96.1013 25.9296 109.091 42.6585 109.091 58.1423C109.091 82.3213 99.1949 98.661 79.3849 107.201C59.5929 115.721 34.0299 120 2.7137 120C-0.416101 74.5015 4.52284 42.853 17.5305 25.0543C14.8168 24.6847 11.9946 24.4902 9.08186 24.4902C6.16915 24.4902 3.12981 24.6458 0 25.0349C12.5192 8.34495 28.114 0 46.7662 0C55.6671 1.42 63.4645 4.08494 70.1583 7.97536ZM35.0791 31.6486C33.1253 41.219 32.1483 48.2607 32.1483 52.7541V60.6127C32.1483 77.5944 41.5739 89.0517 60.4432 94.9651C61.2031 95.043 61.981 95.0819 62.7408 95.0819C70.9543 95.0819 75.0611 90.6662 75.0611 81.835C75.0611 65.2034 61.7277 48.4941 35.0791 31.6486Z" fill="#129A7F"/>
</svg>
